# xmcd CD database file
#
# Track frame offsets:
#	150
#	16999
#	33811
#	51721
#	67837
#	80163
#	99893
#	114292
#	124050
#	142412
#	155000
#	176500
#	196257
#	213266
#	230574
#	245326
#	260969
#	271633
#	290234
#	306108
#	326033
#	339878
#
# Disc length: 4667 seconds
#
# Revision: 0
# Processed by: cddbd v1.5.1PL2 Copyright (c) Steve Scherf et al.
# Submitted via: CDex 1.51
#
DISCID=45123916
DTITLE=George Melly - The Pye Jazz Anthology
DYEAR=2002
DGENRE=Jazz
TTITLE0=Please Don't Mention Your Sign
TTITLE1=You've Got The Right Key But The Wrong Keyhole
TTITLE2=I Wanna Hot Dog For My Roll
TTITLE3=Empty Bed Blues
TTITLE4=Goddy Goody
TTITLE5=Sporting Life
TTITLE6=Makin' Whoopee
TTITLE7=Watch The Birdie
TTITLE8=I Can't Give You Anything But Love
TTITLE9=Masculine Women, Feminine Men
TTITLE10=Drunk Again
TTITLE11=As Time Goes By
TTITLE12=Send Me To The 'Lectric Chair
TTITLE13=Sweet Georgia Brown
TTITLE14=Hometown
TTITLE15=It's De-Lovely
TTITLE16=I Won't Grow Old
TTITLE17=Running Wild
TTITLE18=Route 66
TTITLE19=Senptember Song
TTITLE20=It Had To Be You
TTITLE21=Anything Goes
EXTD=YEAR: 2002
EXTT0=
EXTT1=
EXTT2=
EXTT3=
EXTT4=
EXTT5=
EXTT6=
EXTT7=
EXTT8=
EXTT9=
EXTT10=
EXTT11=
EXTT12=
EXTT13=
EXTT14=
EXTT15=
EXTT16=
EXTT17=
EXTT18=
EXTT19=
EXTT20=
EXTT21=
PLAYORDER=
